<?xml version="1.0" encoding="utf-8"?>
<!-- Generator: Adobe Illustrator 21.0.2, SVG Export Plug-In . SVG Version: 6.00 Build 0)  -->
<svg version="1.1" id="Layer_1" xmlns="http://www.w3.org/2000/svg" xmlns:xlink="http://www.w3.org/1999/xlink" x="0px" y="0px"
	 viewBox="0 0 509 577.6" style="enable-background:new 0 0 509 577.6;" xml:space="preserve">
<style type="text/css">
	.st0{fill:none;stroke:#BCBCBC;stroke-miterlimit:10;}
	.st1{fill:#BCBCBC;}
	.st2{fill:#E0E1E2;stroke:#BCBCBC;stroke-miterlimit:10;}
	.st3{fill:#FFFFFF;stroke:#BCBCBC;stroke-miterlimit:10;}
</style>
<g>
	<g>
		<g>
			<polyline class="st0" points="150.7,258.4 150.7,253.3 254.4,253.3 254.4,241 			"/>
			<g>
				<polygon class="st1" points="155.7,256.9 150.7,265.5 145.7,256.9 				"/>
			</g>
		</g>
	</g>
	<g>
		<g>
			<polyline class="st0" points="358.2,258.4 358.2,253.3 254.5,253.3 254.5,241 			"/>
			<g>
				<polygon class="st1" points="363.2,256.9 358.2,265.5 353.2,256.9 				"/>
			</g>
		</g>
	</g>
	<path class="st2" d="M338,107.8H171c-2.8,0-5-2.2-5-5v-32c0-2.8,2.2-5,5-5h167c2.8,0,5,2.2,5,5v32C343,105.6,340.8,107.8,338,107.8
		z"/>
	<circle class="st1" cx="254.5" cy="107.8" r="4.5"/>
	<path class="st2" d="M338,174.4H171c-2.8,0-5-2.2-5-5v-32c0-2.8,2.2-5,5-5h167c2.8,0,5,2.2,5,5v32C343,172.1,340.8,174.4,338,174.4
		z"/>
	<circle class="st1" cx="254.5" cy="174.4" r="4.5"/>
	<path class="st2" d="M338,241H171c-2.8,0-5-2.2-5-5v-32c0-2.8,2.2-5,5-5h167c2.8,0,5,2.2,5,5v32C343,238.7,340.8,241,338,241z"/>
	<circle class="st1" cx="254.5" cy="241" r="4.5"/>
	<path class="st2" d="M441.7,307.5h-167c-2.8,0-5-2.2-5-5v-32c0-2.8,2.2-5,5-5h167c2.8,0,5,2.2,5,5v32
		C446.7,305.3,444.4,307.5,441.7,307.5z"/>
	<circle class="st1" cx="358.2" cy="307.5" r="4.5"/>
	<path class="st2" d="M234.3,307.5h-167c-2.8,0-5-2.2-5-5v-32c0-2.8,2.2-5,5-5h167c2.8,0,5,2.2,5,5v32
		C239.3,305.3,237.1,307.5,234.3,307.5z"/>
	<circle class="st1" cx="150.8" cy="307.5" r="4.5"/>
	<g>
		<g>
			<line class="st0" x1="254.5" y1="107.8" x2="254.5" y2="125.2"/>
			<g>
				<polygon class="st1" points="249.5,123.7 254.5,132.4 259.5,123.7 				"/>
			</g>
		</g>
	</g>
	<g>
		<g>
			<line class="st0" x1="150.7" y1="307.5" x2="150.7" y2="325"/>
			<g>
				<polygon class="st1" points="145.7,323.5 150.7,332.1 155.7,323.5 				"/>
			</g>
		</g>
	</g>
	<g>
		<g>
			<line class="st0" x1="358.2" y1="307.5" x2="358.2" y2="325"/>
			<g>
				<polygon class="st1" points="353.2,323.5 358.2,332.1 363.2,323.5 				"/>
			</g>
		</g>
	</g>
	<path class="st2" d="M441.7,374.1h-167c-2.8,0-5-2.2-5-5v-32c0-2.8,2.2-5,5-5h167c2.8,0,5,2.2,5,5v32
		C446.7,371.9,444.4,374.1,441.7,374.1z"/>
	<circle class="st1" cx="358.2" cy="374.1" r="4.5"/>
	<path class="st2" d="M234.3,374.1h-167c-2.8,0-5-2.2-5-5v-32c0-2.8,2.2-5,5-5h167c2.8,0,5,2.2,5,5v32
		C239.3,371.9,237.1,374.1,234.3,374.1z"/>
	<circle class="st1" cx="150.8" cy="374.1" r="4.5"/>
	<g>
		<g>
			<line class="st0" x1="150.7" y1="374.1" x2="150.7" y2="391.5"/>
			<g>
				<polygon class="st1" points="145.7,390.1 150.7,398.7 155.7,390.1 				"/>
			</g>
		</g>
	</g>
	<g>
		<g>
			<line class="st0" x1="358.2" y1="374.1" x2="358.2" y2="391.5"/>
			<g>
				<polygon class="st1" points="353.2,390.1 358.2,398.7 363.2,390.1 				"/>
			</g>
		</g>
	</g>
	<path class="st2" d="M441.7,440.7h-167c-2.8,0-5-2.2-5-5v-32c0-2.8,2.2-5,5-5h167c2.8,0,5,2.2,5,5v32
		C446.7,438.5,444.4,440.7,441.7,440.7z"/>
	<circle class="st1" cx="358.2" cy="440.7" r="4.5"/>
	<path class="st2" d="M234.3,440.7h-167c-2.8,0-5-2.2-5-5v-32c0-2.8,2.2-5,5-5h167c2.8,0,5,2.2,5,5v32
		C239.3,438.5,237.1,440.7,234.3,440.7z"/>
	<circle class="st1" cx="150.8" cy="440.7" r="4.5"/>
	<g>
		<g>
			<line class="st0" x1="150.7" y1="440.7" x2="150.7" y2="458.1"/>
			<g>
				<polygon class="st1" points="145.7,456.7 150.7,465.3 155.7,456.7 				"/>
			</g>
		</g>
	</g>
	<g>
		<g>
			<line class="st0" x1="358.2" y1="440.7" x2="358.2" y2="458.1"/>
			<g>
				<polygon class="st1" points="353.2,456.7 358.2,465.3 363.2,456.7 				"/>
			</g>
		</g>
	</g>
	<path class="st2" d="M441.7,507.3h-167c-2.8,0-5-2.2-5-5v-32c0-2.8,2.2-5,5-5h167c2.8,0,5,2.2,5,5v32
		C446.7,505.1,444.4,507.3,441.7,507.3z"/>
	<circle class="st3" cx="358.2" cy="507.3" r="4.5"/>
	<path class="st2" d="M234.3,507.3h-167c-2.8,0-5-2.2-5-5v-32c0-2.8,2.2-5,5-5h167c2.8,0,5,2.2,5,5v32
		C239.3,505.1,237.1,507.3,234.3,507.3z"/>
	<circle class="st3" cx="150.8" cy="507.3" r="4.5"/>
	<g>
		<g>
			<line class="st0" x1="254.5" y1="174.4" x2="254.5" y2="191.8"/>
			<g>
				<polygon class="st1" points="249.5,190.3 254.5,199 259.5,190.3 				"/>
			</g>
		</g>
	</g>
</g>
</svg>
