<?xml version="1.0" encoding="utf-8"?>
<!-- Generator: Adobe Illustrator 21.0.2, SVG Export Plug-In . SVG Version: 6.00 Build 0)  -->
<svg version="1.1" id="Layer_1" xmlns="http://www.w3.org/2000/svg" xmlns:xlink="http://www.w3.org/1999/xlink" x="0px" y="0px"
	 viewBox="0 0 268.6 100" style="enable-background:new 0 0 268.6 100;" xml:space="preserve">
<style type="text/css">
	.st0{fill:#FAFAFA;}
</style>
<g>
	<path class="st0" d="M132.5,88.5c-2.7-2.7-4-6.2-4-9.7h0l-0.7-44.4h-11.6H113l-0.1,5.6c-4.3-2.4-9.2-3.7-14.4-3.7
		c-16.6,0-30,13.4-30,30s13.4,30,30,30c6.1,0,11.8-1.8,16.5-5c1.4,3.2,3.5,6.1,6.1,8.7L132.5,88.5z M98.5,80
		c-7.6,0-13.8-6.2-13.8-13.8s6.2-13.8,13.8-13.8c7.6,0,13.8,6.2,13.8,13.8S106.1,80,98.5,80z"/>
	<path class="st0" d="M268.6,88.5c-2.7-2.7-4-6.2-4-9.7l0,0l-0.7-44.4h-11.6H249l-0.1,5.6c-4.3-2.4-9.2-3.7-14.4-3.7
		c-16.6,0-30,13.4-30,30s13.4,30,30,30c6.1,0,11.8-1.8,16.5-5c1.4,3.2,3.5,6.1,6.1,8.7L268.6,88.5z M234.5,80
		c-7.6,0-13.8-6.2-13.8-13.8s6.2-13.8,13.8-13.8s13.8,6.2,13.8,13.8S242.1,80,234.5,80z"/>
	<path class="st0" d="M196,78.8L196,78.8l-0.7-44.4h-11.6h-3.2l-0.7,44.4c0,7.7,2.9,15.4,8.8,21.2l11.5-11.5
		C197.4,85.8,196,82.3,196,78.8z"/>
	<path class="st0" d="M153.8,39.8c-1.4-2.6-3.2-5.1-5.4-7.3L137,44c2.7,2.7,4,6.2,4,9.7l0,0v44.5h16.2V64.4
		c0-7.6,6.1-13.7,13.7-13.8V34.4C164.6,34.4,158.7,36.4,153.8,39.8z"/>
	<path class="st0" d="M64,88.5c-2.7-2.7-4-6.2-4-9.7l0,0V38.1V21.2c0-7.7-2.9-15.4-8.8-21.2L39.7,11.5c2.7,2.7,4,6.2,4,9.7l0,0v16.9
		v1.5c-4.1-2.1-8.8-3.4-13.8-3.4c-16.6,0-30,13.4-30,30s13.4,30,30,30c6.1,0,11.8-1.8,16.5-5c1.4,3.2,3.5,6.1,6.1,8.7L64,88.5z
		 M30,80c-7.6,0-13.8-6.2-13.8-13.8S22.4,52.5,30,52.5c7.6,0,13.8,6.2,13.8,13.8v0C43.8,73.8,37.6,80,30,80z"/>
	<circle class="st0" cx="187.9" cy="7.4" r="7.4"/>
</g>
</svg>
