<?xml version="1.0" encoding="utf-8"?>
<!-- Generator: Adobe Illustrator 21.0.2, SVG Export Plug-In . SVG Version: 6.00 Build 0)  -->
<svg version="1.1" id="Layer_1" xmlns="http://www.w3.org/2000/svg" xmlns:xlink="http://www.w3.org/1999/xlink" x="0px" y="0px"
	 viewBox="0 0 1100 173" style="enable-background:new 0 0 1100 173;" xml:space="preserve">
<style type="text/css">
	.st0{fill:#212121;}
</style>
<g id="XMLID_185_">
	<polygon id="XMLID_200_" class="st0" points="103.3,113.4 49.3,172.6 0.1,172.6 78.7,86.5 103.3,59.6 157.3,0.4 206.5,0.4 
		127.9,86.5 	"/>
	<path id="XMLID_196_" class="st0" d="M346.3,0.4c38.3,0,57.4,17.2,57.4,51.7c0,19.1-5.7,30.6-17.2,34.5
		c11.5,3.8,17.2,15.3,17.2,34.5c0,34.5-19.1,51.7-57.4,51.7H231.5V0.4H346.3z M346.3,69.3c15.3,0,23-5.7,23-17.2
		s-9.6-17.2-28.7-17.2H266v34.5L346.3,69.3L346.3,69.3z M346.3,103.7h-80.4v34.5h74.6c19.1,0,28.7-5.7,28.7-17.2
		C369.3,109.5,361.6,103.7,346.3,103.7z"/>
	<path id="XMLID_193_" class="st0" d="M494.1,103.7h-16.8v68.9h-34.5V0.4h114.8c38.3,0,57.4,17.2,57.4,51.7s-19.1,51.7-57.4,51.7
		h-10.7l80.8,68.9H575L494.1,103.7z M552,69.3c19.1,0,28.7-5.7,28.7-17.2s-9.6-17.2-28.7-17.2h-74.6v34.5L552,69.3L552,69.3z"/>
	<path id="XMLID_191_" class="st0" d="M790.9,172.6l-56-129l-55.9,129h-37.6L716.1,0.4h37.4l74.8,172.3L790.9,172.6L790.9,172.6z"/>
	<path id="XMLID_189_" class="st0" d="M888.7,172.6h-34.5V0.4h34.5V172.6z"/>
	<path id="XMLID_187_" class="st0" d="M962.3,52.6v120h-34.5V0.4H963l102.7,120V0.4h34.5v172.3h-35L962.3,52.6z"/>
	<polygon id="XMLID_186_" class="st0" points="103.3,113.4 78.7,86.5 0.1,0.4 49.3,0.4 103.3,59.6 127.9,86.5 206.5,172.6 
		157.3,172.6 	"/>
</g>
</svg>
